<svg xmlns="http://www.w3.org/2000/svg" viewBox="0 0 318.61 250.83"><defs><style>.a{fill:#fff;}</style></defs><path class="a" d="M256.72,49.2a64,64,0,0,0-35.47,9.08L182.59,8.79a22.9,22.9,0,0,0-26.23-7.27l-23.94,9.19a5.33,5.33,0,0,0-3.07,6.88,5.38,5.38,0,0,0,1.21,1.87h0A13.77,13.77,0,0,0,144,22.32l16.74-6.42a9.26,9.26,0,0,1,10.64,2.94l4.8,6.16a4.46,4.46,0,0,1-.76,6.25,4.55,4.55,0,0,1-1.16.65L74.62,70.1a3,3,0,0,1-3.19-.68L69.7,67.69a3,3,0,0,1,1-4.91l24-9.19a5.33,5.33,0,0,0,3.07-6.88,5.38,5.38,0,0,0-1.21-1.87h0A13.76,13.76,0,0,0,83.08,42L38.27,59.18a7.7,7.7,0,0,0-4.68,9.58,7.48,7.48,0,0,0,9.53,4.62l.23-.08,4.39-1.69a5.57,5.57,0,0,1,5.93,1.26l7.72,7.72A5.6,5.6,0,0,1,63,84.91l-2.6,37.37a64.36,64.36,0,1,0,67.07,52.42l19.21-7.62a22.81,22.81,0,0,0,12.78-12.73l37-92.51a4.45,4.45,0,0,1,5.8-2.48,4.39,4.39,0,0,1,1.85,1.39l5.23,6.7A64.26,64.26,0,1,0,256.72,49.2ZM74.37,137.5a50,50,0,0,1,35.11,27.68L73.45,179a1.39,1.39,0,0,1-1.8-.79,1.54,1.54,0,0,1-.09-.6Zm39.85,48.93a49.94,49.94,0,1,1-54.83-49.7l-3.32,47.45a12.21,12.21,0,0,0,11.34,13h0a12.09,12.09,0,0,0,5.35-.83l41.05-16.27A50,50,0,0,1,114.22,186.43Zm19.64-30.6-11,4.21a64.34,64.34,0,0,0-47.51-36.92L77,99.48a1.38,1.38,0,0,1,1.49-1.28,1.36,1.36,0,0,1,.88.4l54.94,54.94a1.39,1.39,0,0,1,0,2,1.44,1.44,0,0,1-.46.31Zm53-110.24-39.29,97.24a1.39,1.39,0,0,1-1.81.76,1.41,1.41,0,0,1-.46-.3L85.93,83.92a1.4,1.4,0,0,1,0-2,1.57,1.57,0,0,1,.49-.31l98.65-37.87a1.39,1.39,0,0,1,1.8.79,1.41,1.41,0,0,1,0,1Zm64.8,117.72a49.93,49.93,0,0,1-33.38-84.48l33.23,42.54a4.19,4.19,0,0,0,7.5-2.58h0a7.51,7.51,0,0,0,1.29-10.53L230.17,69.69a49.95,49.95,0,1,1,21.49,93.62Z" transform="translate(0.1 0)"/></svg>