<svg xmlns="http://www.w3.org/2000/svg" viewBox="0 0 328.43 281.12"><defs><style>.a{fill:#fff;}</style></defs><path class="a" d="M328.22,99.41,304.67,83.86l14.66-21.78-25.77,6.67-5.34-25.34L273.56,65.64,252.22,51l3.27,17.5c-8.2-2.59-18.1-7.56-18.49-16.5-.67-15.33,11.67-22.67-8.33-42.67-7.84-7.83-29.62-17-46.34,1.67-5.66,6.33-12.08,20.33-6,34.33,2.76,6.34,1.15,10.9-2.64,15.49a72,72,0,0,1-13.8-13.27c-4.29-1.43-9.47,4.13-13.45,11.31a113.59,113.59,0,1,0,50.32,31.51c3.18-7.33,5.47-14.52,3-18.15A79.89,79.89,0,0,1,185,67.31a18.78,18.78,0,0,0,4.34-20C185.11,35,186.33,26,193.67,20s16.94-9.72,27.66,1c11.34,11.33,3.08,21,1.67,30-2,12.84,17,20.88,26.39,28.05l-16.28,4,22.67,12.89-14.67,20.89,26.22-5.92,4.45,25.92,14.66-21.34s23.56,18.2,23.12,16.86-8.89-29.78-8.89-29.78ZM58.77,100.49C40.13,116.4,26.5,135.3,18.63,154.3c9.15-58.91,51.88-92,105.87-86.3C102.62,71.94,79.37,82.91,58.77,100.49Z" transform="translate(0.21 -0.04)"/></svg>