<svg xmlns="http://www.w3.org/2000/svg" viewBox="0 0 213 268"><defs><style>.a{fill:#fff;}</style></defs><path class="a" d="M88.5,38.83A2.83,2.83,0,0,0,85.67,36h0a6.17,6.17,0,0,1-6.17-6.17V6.17A6.17,6.17,0,0,1,85.67,0h42.66a6.17,6.17,0,0,1,6.17,6.17V29.83A6.17,6.17,0,0,1,128.33,36h0a2.83,2.83,0,0,0-2.83,2.83h0V43.3A2.72,2.72,0,0,1,122.76,46a2.11,2.11,0,0,1-.35,0,116.92,116.92,0,0,0-30.82,0,2.73,2.73,0,0,1-3.07-2.35c0-.11,0-.23,0-.35Zm57,12.73a116,116,0,0,1,37.26,21.62,2.51,2.51,0,0,0,3.53-.26,2.7,2.7,0,0,0,.27-.39l4.16-7.21a12.44,12.44,0,0,0-4.53-17h0l-20.87-12a12.45,12.45,0,0,0-17,4.54h0l-4.11,7.12a2.51,2.51,0,0,0,.9,3.42,2.48,2.48,0,0,0,.44.2Zm-77.06,0A115.91,115.91,0,0,0,31.21,73.18a2.51,2.51,0,0,1-3.53-.26,2.7,2.7,0,0,1-.27-.39l-4.16-7.21a12.44,12.44,0,0,1,4.53-17h0l20.9-12a12.45,12.45,0,0,1,17,4.54h0l4.11,7.12a2.51,2.51,0,0,1-.9,3.42,2.48,2.48,0,0,1-.44.2ZM213,161.5A106.5,106.5,0,1,1,106.5,55,106.5,106.5,0,0,1,213,161.5Zm-47.5,27.31-39.64-33.26a10.36,10.36,0,0,1-3.69-7.92V92c0-21.33-32-21.33-32,0v70.55a10.36,10.36,0,0,0,3.69,7.92l51.07,42.85C161.27,227,181.84,202.52,165.5,188.81Z"/></svg>