<svg xmlns="http://www.w3.org/2000/svg" viewBox="0 0 230.59 315.24"><defs><style>.a{fill:#fff;}</style></defs><path class="a" d="M115.29,0c-59.65,0-108,15-108,33.5S55.64,67,115.29,67s108-15,108-33.5S174.93,0,115.29,0Zm0,59.5c-46.39,0-84-11.64-84-26s37.61-26,84-26,84,11.64,84,26S161.68,59.5,115.29,59.5ZM80.5,191.14l11.14,34.27a5.92,5.92,0,0,0,5.63,4.09h36a5.91,5.91,0,0,0,5.63-4.09L150,191.14a5.93,5.93,0,0,0-2.15-6.62l-29.15-21.18a5.91,5.91,0,0,0-7,0L82.66,184.52A5.92,5.92,0,0,0,80.5,191.14ZM38.18,141l10.24,31.53a7.9,7.9,0,0,1-2.87,8.84L18.73,200.81a7.88,7.88,0,0,1-9.29,0L3.37,196.4a7.86,7.86,0,0,1-3.24-7,114.71,114.71,0,0,1,16.33-50.12,7.86,7.86,0,0,1,6.73-3.76h7.47A7.91,7.91,0,0,1,38.18,141Zm40,103.28,5.79-8a7.85,7.85,0,0,0,1.12-7.08L73.34,192.9a7.88,7.88,0,0,0-5.08-5.07l-9.38-3.05a7.88,7.88,0,0,0-7.08,1.12L23,206.85a7.9,7.9,0,0,0-2.87,8.84L28.65,242a7.91,7.91,0,0,0,7.51,5.46H71.81a7.93,7.93,0,0,0,6.4-3.22ZM136.76,290l11.09-34.14a7.87,7.87,0,0,0-1.12-7.09l-5.85-8.05a7.91,7.91,0,0,0-6.4-3.26H96.09a7.88,7.88,0,0,0-6.39,3.26l-5.86,8.05a7.93,7.93,0,0,0-1.12,7.09L93.81,290a7.91,7.91,0,0,0,7.52,5.46h27.92A7.91,7.91,0,0,0,136.76,290ZM118.45,141.13V151a7.91,7.91,0,0,0,3.25,6.39l30.86,22.42a7.91,7.91,0,0,0,7.09,1.13l9.38-3.05a7.88,7.88,0,0,0,5.07-5.08l11-33.9a7.9,7.9,0,0,0-2.87-8.84l-22.41-16.28a7.93,7.93,0,0,0-9.3,0L121.7,134.73A7.93,7.93,0,0,0,118.45,141.13Zm112,48.25a115,115,0,0,0-16.33-50.12,7.88,7.88,0,0,0-6.74-3.76h-7.47a7.9,7.9,0,0,0-7.51,5.5l-10.25,31.53a7.92,7.92,0,0,0,2.87,8.84l26.83,19.48a7.88,7.88,0,0,0,9.29,0l6.07-4.41A7.9,7.9,0,0,0,230.45,189.38ZM201.93,242l8.56-26.35a7.89,7.89,0,0,0-2.87-8.83l-28.84-21a7.9,7.9,0,0,0-7.09-1.12l-9.38,3.05a7.91,7.91,0,0,0-5.07,5.07L145.45,229.1a7.92,7.92,0,0,0,1.12,7.08l5.8,8a7.88,7.88,0,0,0,6.39,3.26h35.65A7.89,7.89,0,0,0,201.93,242ZM44.77,138.9l11,33.9a7.88,7.88,0,0,0,5.07,5.08l9.38,3.05a7.91,7.91,0,0,0,7.09-1.13l30.86-22.42a7.88,7.88,0,0,0,3.26-6.39v-9.86a7.91,7.91,0,0,0-3.26-6.4L79.35,113.78a7.91,7.91,0,0,0-9.29,0L47.64,130.06A7.92,7.92,0,0,0,44.77,138.9ZM194.41,254.5H161.26a7.9,7.9,0,0,0-7.52,5.46L143.5,291.49a7.9,7.9,0,0,0,2.87,8.84l6.06,4.4a7.89,7.89,0,0,0,7.69.91,116.1,116.1,0,0,0,42.6-31,7.89,7.89,0,0,0,1.51-7.59l-2.3-7.07A7.89,7.89,0,0,0,194.41,254.5ZM78.14,304.73l6.07-4.4a7.9,7.9,0,0,0,2.87-8.84L76.83,260a7.89,7.89,0,0,0-7.51-5.46H36.16A7.91,7.91,0,0,0,28.65,260l-2.3,7a7.89,7.89,0,0,0,1.51,7.59,116.06,116.06,0,0,0,42.59,31A7.88,7.88,0,0,0,78.14,304.73ZM147.3,92a7.87,7.87,0,0,0-5.66-5.25,115.81,115.81,0,0,0-52.7,0A7.87,7.87,0,0,0,83.27,92L81,99.13A7.89,7.89,0,0,0,83.82,108l26.82,19.49a7.91,7.91,0,0,0,9.29,0L146.75,108a7.91,7.91,0,0,0,2.88-8.83Zm79.87,113.51-7.06,5.12a2.18,2.18,0,0,0-.77,1.07l-12.58,38.7a2.13,2.13,0,0,0,0,1.32l2.69,8.26a2.14,2.14,0,0,0,2.69,1.38,2.12,2.12,0,0,0,1.16-.9,114.85,114.85,0,0,0,17.27-53.08,2.14,2.14,0,0,0-3.4-1.89ZM144,308l-7.07-5.13a2.13,2.13,0,0,0-1.26-.41H94.94a2.08,2.08,0,0,0-1.25.41L86.62,308a2.14,2.14,0,0,0-.47,3,2.1,2.1,0,0,0,1.2.82,115.84,115.84,0,0,0,55.88,0,2.15,2.15,0,0,0,1.58-2.6A2.13,2.13,0,0,0,144,308ZM23.81,250.38l-12.57-38.7a2.14,2.14,0,0,0-.78-1.07l-7-5.12A2.14,2.14,0,0,0,0,207.36a114.7,114.7,0,0,0,17.27,53.08,2.15,2.15,0,0,0,2.95.68,2.12,2.12,0,0,0,.9-1.16l2.68-8.26A2.13,2.13,0,0,0,23.81,250.38Zm132-155.57,2.69,8.3a2.14,2.14,0,0,0,.78,1.07l32.92,23.91a2.08,2.08,0,0,0,1.25.41h8.66a2.15,2.15,0,0,0,2.13-2.17,2.1,2.1,0,0,0-.49-1.35,116,116,0,0,0-45.11-32.82,2.13,2.13,0,0,0-2.8,1.14,2.18,2.18,0,0,0-.06,1.51ZM38.41,128.09l32.92-23.91a2.18,2.18,0,0,0,.77-1.07l2.7-8.3A2.15,2.15,0,0,0,72,92.16,116,116,0,0,0,26.85,125a2.15,2.15,0,0,0,1.65,3.52h8.65A2.17,2.17,0,0,0,38.41,128.09Z" transform="translate(0.01)"/></svg>