<svg xmlns="http://www.w3.org/2000/svg" viewBox="0 0 178 319.54"><defs><style>.a{fill:#fff;}</style></defs><path class="a" d="M50.5,288c0,9.68,16.38,15.53,39.06,15.53s39.06-5.85,39.06-15.53l-.12-8c7.56,4.19,12.13,9.61,12.13,15.54,0,13.28-22.86,24-51.07,24s-51.08-10.76-51.08-24c0-5.93,4.57-11.35,12.14-15.54Zm8-15.58c21.34-22.38,37.11-51,45.43-88.07A96.38,96.38,0,0,1,25.75,161.9a29.2,29.2,0,0,0,4.61,12.37c24,36.19,28.14,62.63,28.14,91.14Zm61.69-92.06c-4.58,32.6-24.8,73.16-61.69,102V284c0,7.46,13.33,13.5,31,13.5s31-6,31-13.5V265.39c0-28.51,4.14-54.95,28.14-91.14a29.15,29.15,0,0,0,4.72-13.36,96.5,96.5,0,0,1-33.17,19.45ZM178,89A89,89,0,1,1,89,0,89,89,0,0,1,178,89ZM144.53,69.26l-34-5.69a5.51,5.51,0,0,1-4-2.9L90.61,30.09a1.82,1.82,0,0,0-2.46-.76,1.85,1.85,0,0,0-.76.76L71.46,60.67a5.51,5.51,0,0,1-4,2.9l-34,5.69A1.83,1.83,0,0,0,32,71.35a1.92,1.92,0,0,0,.5,1l24.16,24.6a5.51,5.51,0,0,1,1.52,4.68l-5.09,34.1a1.82,1.82,0,0,0,1.51,2.07,1.89,1.89,0,0,0,1.1-.18l30.86-15.37a5.46,5.46,0,0,1,4.92,0L122.3,137.6a1.81,1.81,0,0,0,2.43-.79,1.75,1.75,0,0,0,.18-1.1l-5.09-34.1a5.51,5.51,0,0,1,1.52-4.68l24.16-24.6a1.81,1.81,0,0,0,0-2.57A1.83,1.83,0,0,0,144.53,69.26Z"/></svg>